<svg xmlns="http://www.w3.org/2000/svg" viewBox="0 0 24 24" width="24" height="24" fill="none" stroke="currentColor" stroke-width="2" stroke-linecap="round" stroke-linejoin="round">
  <path d="M4 6h2c1.1 0 2 .4 2 2v1c0 1-.5 1.5-1 2 .5.5 1 1 1 2v1c0 1.6-.9 2-2 2H4"/>
  <path d="M20 6h-2c-1.1 0-2 .4-2 2v1c0 1 .5 1.5 1 2-.5.5-1 1-1 2v1c0 1.6.9 2 2 2h2"/>
  <circle cx="9" cy="12" r="0.5" fill="currentColor" stroke="none"/>
  <circle cx="12" cy="12" r="0.5" fill="currentColor" stroke="none"/>
  <circle cx="15" cy="12" r="0.5" fill="currentColor" stroke="none"/>
</svg>
